<?xml version="1.0" encoding="UTF-8" standalone="no"?>
<!-- Created with Inkscape (http://www.inkscape.org/) -->

<svg
   xmlns:dc="http://purl.org/dc/elements/1.1/"
   xmlns:cc="http://creativecommons.org/ns#"
   xmlns:rdf="http://www.w3.org/1999/02/22-rdf-syntax-ns#"
   xmlns:svg="http://www.w3.org/2000/svg"
   xmlns="http://www.w3.org/2000/svg"
   xmlns:xlink="http://www.w3.org/1999/xlink"
   xmlns:sodipodi="http://sodipodi.sourceforge.net/DTD/sodipodi-0.dtd"
   xmlns:inkscape="http://www.inkscape.org/namespaces/inkscape"
   width="800"
   height="670"
   id="svg2"
   version="1.1"
   inkscape:version="0.92.4 (5da689c313, 2019-01-14)"
   sodipodi:docname="hotdog.svg"
   inkscape:export-filename="C:\Documents and Settings\andrewo\My Documents\My Pictures\hotdog2.png"
   inkscape:export-xdpi="150"
   inkscape:export-ydpi="150">
  <defs
     id="defs4">
    <linearGradient
       id="linearGradient3808">
      <stop
         id="stop3810"
         offset="0"
         style="stop-color:#ffc71d;stop-opacity:1;" />
      <stop
         id="stop3812"
         offset="1"
         style="stop-color:#fffbed;stop-opacity:1;" />
    </linearGradient>
    <linearGradient
       id="linearGradient3792">
      <stop
         style="stop-color:#ffc71d;stop-opacity:1;"
         offset="0"
         id="stop3794" />
      <stop
         style="stop-color:#fffbed;stop-opacity:1;"
         offset="1"
         id="stop3796" />
    </linearGradient>
    <linearGradient
       id="linearGradient3808-8">
      <stop
         id="stop3810-8"
         offset="0"
         style="stop-color:#ffc71d;stop-opacity:1;" />
      <stop
         id="stop3812-2"
         offset="1"
         style="stop-color:#fffbed;stop-opacity:1;" />
    </linearGradient>
    <linearGradient
       inkscape:collect="always"
       xlink:href="#linearGradient3792-7"
       id="linearGradient3798-7"
       x1="132.84976"
       y1="466.94135"
       x2="285.42856"
       y2="466.94135"
       gradientUnits="userSpaceOnUse" />
    <linearGradient
       id="linearGradient3792-7">
      <stop
         style="stop-color:#ffc71d;stop-opacity:1;"
         offset="0"
         id="stop3794-1" />
      <stop
         style="stop-color:#fffbed;stop-opacity:1;"
         offset="1"
         id="stop3796-2" />
    </linearGradient>
    <linearGradient
       inkscape:collect="always"
       xlink:href="#linearGradient3808"
       id="linearGradient7076"
       gradientUnits="userSpaceOnUse"
       gradientTransform="translate(-116,251.42856)"
       x1="494.57141"
       y1="444.9483"
       x2="343.58548"
       y2="449.23404" />
    <linearGradient
       inkscape:collect="always"
       xlink:href="#linearGradient3792"
       id="linearGradient7079"
       gradientUnits="userSpaceOnUse"
       gradientTransform="translate(-116,251.42856)"
       x1="132.84976"
       y1="466.94135"
       x2="285.42856"
       y2="466.94135" />
    <linearGradient
       inkscape:collect="always"
       xlink:href="#linearGradient3808-8"
       id="linearGradient7089"
       gradientUnits="userSpaceOnUse"
       gradientTransform="matrix(-1,0,0,1,917.93186,253.93978)"
       x1="494.57141"
       y1="444.9483"
       x2="343.58548"
       y2="449.23404" />
    <linearGradient
       inkscape:collect="always"
       xlink:href="#linearGradient3792-7"
       id="linearGradient7092"
       gradientUnits="userSpaceOnUse"
       gradientTransform="matrix(-1,0,0,1,917.93186,253.93978)"
       x1="132.84976"
       y1="466.94135"
       x2="285.42856"
       y2="466.94135" />
    <linearGradient
       inkscape:collect="always"
       xlink:href="#linearGradient3792-7"
       id="linearGradient34189"
       gradientUnits="userSpaceOnUse"
       gradientTransform="matrix(-1,0,0,1,917.93186,253.93978)"
       x1="132.84976"
       y1="466.94135"
       x2="285.42856"
       y2="466.94135" />
    <linearGradient
       inkscape:collect="always"
       xlink:href="#linearGradient3808-8"
       id="linearGradient34191"
       gradientUnits="userSpaceOnUse"
       gradientTransform="matrix(-1,0,0,1,917.93186,253.93978)"
       x1="494.57141"
       y1="444.9483"
       x2="343.58548"
       y2="449.23404" />
  </defs>
  <sodipodi:namedview
     id="base"
     pagecolor="#49c935"
     bordercolor="#666666"
     borderopacity="1.0"
     inkscape:pageopacity="1"
     inkscape:pageshadow="2"
     inkscape:zoom="0.7"
     inkscape:cx="356.57783"
     inkscape:cy="352.47214"
     inkscape:document-units="px"
     inkscape:current-layer="layer1"
     showgrid="false"
     inkscape:window-width="1920"
     inkscape:window-height="1016"
     inkscape:window-x="0"
     inkscape:window-y="36"
     inkscape:window-maximized="1"
     width="1000px" />
  <metadata
     id="metadata7">
    <rdf:RDF>
      <cc:Work
         rdf:about="">
        <dc:format>image/svg+xml</dc:format>
        <dc:type
           rdf:resource="http://purl.org/dc/dcmitype/StillImage" />
        <dc:title></dc:title>
      </cc:Work>
    </rdf:RDF>
  </metadata>
  <g
     inkscape:label="Layer 1"
     inkscape:groupmode="layer"
     id="layer1"
     transform="translate(0,-382.36218)">
    <rect
       id="rect54"
       width="944.28571"
       height="742.85712"
       x="-62.857143"
       y="350.93359"
       style="fill:#49c935;fill-opacity:1" />
    <g
       id="g34738"
       transform="matrix(0.88530568,0,0,0.88530568,21.85268,89.035487)">
      <path
         sodipodi:nodetypes="cssssssc"
         inkscape:connector-curvature="0"
         id="path3764"
         d="M 155.42857,420.9336 C 140.14231,411.79147 119.76009,399.95531 95.428574,412.36217 41.70777,439.75489 39.43776,492.47834 31.14286,538.07646 c -19.64388,107.98488 -5.63767,207.99108 -2.85715,310 1.18241,43.37902 12.12483,93.78792 27.14286,130 8.34456,20.12073 20.45333,30.27534 34.285724,40.00004 18.613056,13.0856 37.765826,14.6754 55.714276,7.1428 7.55438,-3.1704 13.33333,-9.5238 20,-14.2857"
         style="fill:url(#linearGradient7079);fill-opacity:1;stroke:#000000;stroke-width:8;stroke-linecap:butt;stroke-linejoin:miter;stroke-miterlimit:4;stroke-dasharray:none;stroke-opacity:1" />
      <path
         sodipodi:nodetypes="cssssscc"
         inkscape:connector-curvature="0"
         id="path3766"
         d="m 238.28571,430.9336 c 9.71097,-17.62735 25.99885,-22.45723 42.85715,-18.57143 49.94488,11.51217 55.11176,37.79117 64.28571,64.28572 30.68582,88.62129 29.85169,121.30205 31.42857,168.57142 4.29651,128.79409 -6.21512,137.9482 -10,225.71429 -3.88897,90.18005 -17.86154,116.02574 -38.57143,142.8571 -19.49156,25.253 -45.99762,19.9526 -64.28571,15.7143 -21.18605,-4.9877 -24.11569,-12.7976 -32.85714,-22.8571"
         style="fill:url(#linearGradient7076);fill-opacity:1;stroke:#000000;stroke-width:8;stroke-linecap:butt;stroke-linejoin:miter;stroke-miterlimit:4;stroke-dasharray:none;stroke-opacity:1" />
      <path
         sodipodi:nodetypes="sssscssssssssscs"
         inkscape:connector-curvature="0"
         id="path3780"
         d="m 236.54324,435.05955 c -1.71259,-9.95814 -9.60893,-20.6295 -25.75889,-25.75889 -15.668,-4.97631 -32.48426,-2.75832 -46.46702,4.54569 -15.80918,8.25805 -22.16451,21.98208 -21.71828,34.85026 1.76306,50.84271 4.81792,95.26597 7.07107,142.43151 -0.50508,57.23547 -1.81482,108.08441 -1.51523,150.51273 0.33693,47.71533 -1.20975,86.86501 -2.0203,126.77415 -0.65228,32.11609 -0.87444,59.62763 0,87.88327 0.49784,16.08652 4.01368,34.49823 22.72843,55.13993 5.65861,6.2413 20.99175,3.7514 33.84011,5.0508 10.65423,1.0775 21.97617,-3.4745 29.29442,-14.2288 10.63437,-15.62733 16.22019,-37.40235 19.1929,-78.28681 2.16386,-29.76013 4.50382,-61.65366 4.54569,-106.06602 0.0321,-34.08483 -0.0513,-66.44677 -3.03046,-118.69293 -1.80412,-31.63938 -5.7242,-64.64491 -8.5863,-118.69292 -1.61712,-47.18981 2.60523,-86.26071 -7.57614,-145.46197 z"
         style="fill:#ff917d;fill-opacity:1;stroke:#000000;stroke-width:8;stroke-linecap:butt;stroke-linejoin:miter;stroke-miterlimit:4;stroke-dasharray:none;stroke-opacity:1" />
      <path
         sodipodi:nodetypes="ssssss"
         inkscape:connector-curvature="0"
         id="path3770"
         d="m 145.88205,511.83115 c -9.90872,10.16027 -10.37819,23.52739 -5.05077,35.1028 7.61324,16.54203 23.61915,15.09407 36.3655,12.12183 12.26106,-2.85908 19.07298,-15.31326 18.68782,-28.53681 -0.59263,-20.3465 -13.02696,-28.06049 -25.25381,-28.03173 -10.1148,0.0238 -19.12977,3.5823 -24.74874,9.34391 z"
         style="fill:#ffffff;fill-opacity:1;stroke:#000000;stroke-width:8;stroke-linecap:butt;stroke-linejoin:miter;stroke-miterlimit:4;stroke-dasharray:none;stroke-opacity:1" />
      <path
         sodipodi:nodetypes="ssssss"
         inkscape:connector-curvature="0"
         id="path3772"
         d="m 218.10796,511.07353 c -8.71046,6.74857 -9.92131,18.75578 -9.59645,26.26397 0.45206,10.44842 7.97906,17.75425 21.2132,19.44544 14.39497,1.83953 24.04762,-4.00978 28.28427,-13.88961 3.0082,-7.01507 7.85698,-22.575 -6.06092,-33.33503 -13.71355,-10.60205 -25.88395,-4.64893 -33.8401,1.51523 z"
         style="fill:#ffffff;fill-opacity:1;stroke:#000000;stroke-width:8;stroke-linecap:butt;stroke-linejoin:miter;stroke-miterlimit:4;stroke-dasharray:none;stroke-opacity:1" />
      <path
         sodipodi:nodetypes="cc"
         inkscape:connector-curvature="0"
         id="path3778"
         d="m 193.86429,572.94538 c 1.70411,8.5826 23.14167,8.41829 20.96067,-4.04061"
         style="fill:none;stroke:#000000;stroke-width:8;stroke-linecap:round;stroke-linejoin:miter;stroke-miterlimit:4;stroke-dasharray:none;stroke-opacity:1" />
      <path
         sodipodi:nodetypes="cc"
         inkscape:connector-curvature="0"
         id="path3774"
         d="m 165.83256,531.78166 0.75761,-0.75762"
         style="fill:none;stroke:#000000;stroke-width:8;stroke-linecap:round;stroke-linejoin:miter;stroke-miterlimit:4;stroke-dasharray:none;stroke-opacity:1" />
      <path
         sodipodi:nodetypes="cc"
         inkscape:connector-curvature="0"
         id="path3776"
         d="m 234.52293,528.49866 0.50508,0.50508"
         style="fill:none;stroke:#000000;stroke-width:8;stroke-linecap:round;stroke-linejoin:miter;stroke-miterlimit:4;stroke-dasharray:none;stroke-opacity:1" />
      <path
         sodipodi:nodetypes="sssssssssssssss"
         inkscape:connector-curvature="0"
         id="path3782"
         d="m 221.14286,620.9336 c -33.791,-13.17353 -58.52871,13.65347 -57.14286,36.42857 2.19835,36.12791 42.15504,22.69119 42.85715,58.57143 0.5375,27.4686 -39.43696,35.65759 -37.85715,65 2.12417,39.45317 29.1948,30.50127 32.85715,54.28572 2.36274,15.34441 -32.95298,20.09246 -34.28572,66.42857 -0.83004,28.85829 15.17216,39.48916 32.85715,36.42857 6.37287,-1.1029 21.98253,-4.58953 21.42857,-17.85714 -0.72623,-17.39363 -32.13118,1.97328 -31.42857,-20.71429 0.91672,-29.6014 42.25678,-35.05465 42.14285,-70 -0.11797,-36.18833 -34.98758,-25.65996 -31.42857,-53.57143 2.67597,-20.98623 35.29481,-28.95955 36.42857,-65.71428 1.54155,-49.97486 -43.48688,-39.35302 -40,-57.85715 2.0204,-10.72188 17.13428,-5.62366 25.71429,-12.85715 5.54809,-4.67739 5.22699,-15.69827 -2.14286,-18.57142 z"
         style="fill:#f6ff1d;fill-opacity:1;stroke:#000000;stroke-width:8;stroke-linecap:butt;stroke-linejoin:miter;stroke-miterlimit:4;stroke-dasharray:none;stroke-opacity:1" />
      <g
         transform="translate(58.571429)"
         id="g34178">
        <path
           style="fill:url(#linearGradient34189);fill-opacity:1;stroke:#000000;stroke-width:8;stroke-linecap:butt;stroke-linejoin:miter;stroke-miterlimit:4;stroke-dasharray:none;stroke-opacity:1"
           d="m 646.50329,423.44482 c 15.28626,-9.14213 35.66848,-20.97829 60,-8.57143 53.7208,27.39272 55.99081,80.11617 64.28571,125.71429 19.64388,107.98488 5.63767,207.99108 2.85715,310 -1.18241,43.37902 -12.12483,93.78794 -27.14286,130.00004 -8.34456,20.12068 -20.45333,30.27528 -34.28572,39.99998 -18.61306,13.0856 -37.76583,14.6754 -55.71428,7.1428 -7.55438,-3.1704 -13.33333,-9.5238 -20,-14.2857"
           id="path3764-6"
           inkscape:connector-curvature="0"
           sodipodi:nodetypes="cssssssc" />
        <path
           style="fill:url(#linearGradient34191);fill-opacity:1;stroke:#000000;stroke-width:8;stroke-linecap:butt;stroke-linejoin:miter;stroke-miterlimit:4;stroke-dasharray:none;stroke-opacity:1"
           d="m 563.64615,433.44482 c -9.71097,-17.62735 -25.99885,-22.45723 -42.85715,-18.57143 -49.94488,11.51217 -55.11176,37.79117 -64.28571,64.28572 -30.68582,88.62129 -29.85169,121.30205 -31.42857,168.57142 -4.29651,128.79409 6.21512,137.9482 10,225.71429 3.88897,90.18 17.86154,116.0257 38.57143,142.85708 19.49156,25.253 45.99762,19.9526 64.28571,15.7143 21.18605,-4.9877 24.11569,-12.7976 32.85714,-22.8571"
           id="path3766-0"
           inkscape:connector-curvature="0"
           sodipodi:nodetypes="cssssscc" />
        <path
           style="fill:#ff917c;fill-opacity:1;stroke:#000000;stroke-width:8;stroke-linecap:butt;stroke-linejoin:miter;stroke-miterlimit:4;stroke-dasharray:none;stroke-opacity:1"
           d="m 565.38862,437.57077 c 1.71259,-9.95814 9.60893,-20.6295 25.75889,-25.75889 15.668,-4.97631 32.48426,-2.75832 46.46702,4.54569 15.80918,8.25805 22.16451,21.98208 21.71828,34.85026 -1.76306,50.84271 -4.81792,95.26597 -7.07107,142.43151 0.50508,57.23547 1.81482,108.08441 1.51523,150.51273 -0.33693,47.71533 1.20975,86.86501 2.0203,126.77415 0.65228,32.11609 0.87444,59.62763 0,87.8833 -0.49784,16.0865 -4.01368,34.4982 -22.72843,55.13988 -5.65861,6.2413 -20.99175,3.7514 -33.84011,5.0508 -10.65423,1.0775 -21.97617,-3.4745 -29.29442,-14.2288 -10.63437,-15.62728 -16.22019,-37.40238 -19.1929,-78.28679 -2.16386,-29.76013 -4.50382,-61.65366 -4.54569,-106.06602 -0.0321,-34.08483 0.0513,-66.44677 3.03046,-118.69293 1.80412,-31.63938 5.7242,-64.64491 8.5863,-118.69292 1.61712,-47.18981 -2.60523,-86.26071 7.57614,-145.46197 z"
           id="path3780-4"
           inkscape:connector-curvature="0"
           sodipodi:nodetypes="sssscssssssssscs" />
        <path
           style="fill:#ffffff;fill-opacity:1;stroke:#000000;stroke-width:8;stroke-linecap:butt;stroke-linejoin:miter;stroke-miterlimit:4;stroke-dasharray:none;stroke-opacity:1"
           d="m 656.04981,514.34237 c 9.90872,10.16027 10.37819,23.52739 5.05077,35.1028 -7.61324,16.54203 -23.61915,15.09407 -36.3655,12.12183 -12.26106,-2.85908 -19.07298,-15.31326 -18.68782,-28.53681 0.59263,-20.3465 13.02696,-28.06049 25.25381,-28.03173 10.1148,0.0238 19.12977,3.5823 24.74874,9.34391 z"
           id="path3770-9"
           inkscape:connector-curvature="0"
           sodipodi:nodetypes="ssssss" />
        <path
           style="fill:#ffffff;fill-opacity:1;stroke:#000000;stroke-width:8;stroke-linecap:butt;stroke-linejoin:miter;stroke-miterlimit:4;stroke-dasharray:none;stroke-opacity:1"
           d="m 583.8239,513.58475 c 8.71046,6.74857 9.92131,18.75578 9.59645,26.26397 -0.45206,10.44842 -7.97906,17.75425 -21.2132,19.44544 -14.39497,1.83953 -24.04762,-4.00978 -28.28427,-13.88961 -3.0082,-7.01507 -7.85698,-22.575 6.06092,-33.33503 13.71355,-10.60205 25.88395,-4.64893 33.8401,1.51523 z"
           id="path3772-4"
           inkscape:connector-curvature="0"
           sodipodi:nodetypes="ssssss" />
        <path
           style="fill:none;stroke:#000000;stroke-width:8;stroke-linecap:round;stroke-linejoin:miter;stroke-miterlimit:4;stroke-dasharray:none;stroke-opacity:1"
           d="m 608.06757,575.4566 c -1.70411,8.5826 -23.14167,8.41829 -20.96067,-4.04061"
           id="path3778-6"
           inkscape:connector-curvature="0"
           sodipodi:nodetypes="cc" />
        <path
           style="fill:none;stroke:#000000;stroke-width:8;stroke-linecap:round;stroke-linejoin:miter;stroke-miterlimit:4;stroke-dasharray:none;stroke-opacity:1"
           d="m 636.0993,534.29288 -0.75761,-0.75762"
           id="path3774-0"
           inkscape:connector-curvature="0"
           sodipodi:nodetypes="cc" />
        <path
           style="fill:none;stroke:#000000;stroke-width:8;stroke-linecap:round;stroke-linejoin:miter;stroke-miterlimit:4;stroke-dasharray:none;stroke-opacity:1"
           d="m 567.40893,531.00988 -0.50508,0.50508"
           id="path3776-3"
           inkscape:connector-curvature="0"
           sodipodi:nodetypes="cc" />
        <path
           style="fill:#ff2400;fill-opacity:1;stroke:#000000;stroke-width:8;stroke-linecap:butt;stroke-linejoin:miter;stroke-miterlimit:4;stroke-dasharray:none;stroke-opacity:1"
           d="m 580.789,623.44482 c 33.791,-13.17353 58.52871,13.65347 57.14286,36.42857 -2.19835,36.12791 -42.15504,22.69119 -42.85715,58.57143 -0.5375,27.4686 39.43696,35.65759 37.85715,65 -2.12417,39.45317 -29.1948,30.50127 -32.85715,54.28572 -2.36274,15.34441 32.95298,20.09246 34.28572,66.42857 0.83004,28.85829 -15.17216,39.48911 -32.85715,36.42861 -6.37287,-1.1029 -21.98253,-4.58957 -21.42857,-17.85718 0.72623,-17.39363 32.13118,1.97328 31.42857,-20.71429 -0.91672,-29.6014 -42.25678,-35.05465 -42.14285,-70 0.11797,-36.18833 34.98758,-25.65996 31.42857,-53.57143 -2.67597,-20.98623 -35.29481,-28.95955 -36.42857,-65.71428 -1.54155,-49.97486 43.48688,-39.35302 40,-57.85715 -2.0204,-10.72188 -17.13428,-5.62366 -25.71429,-12.85715 -5.54809,-4.67739 -5.22699,-15.69827 2.14286,-18.57142 z"
           id="path3782-6"
           inkscape:connector-curvature="0"
           sodipodi:nodetypes="sssssssssssssss" />
      </g>
      <path
         inkscape:connector-curvature="0"
         id="path34701"
         d="m 377.14286,644.20917 54.28571,51.42857"
         style="fill:none;stroke:#000000;stroke-width:6;stroke-linecap:round;stroke-linejoin:round;stroke-miterlimit:4;stroke-dasharray:none;stroke-opacity:1" />
      <path
         transform="translate(0,382.36218)"
         inkscape:connector-curvature="0"
         id="path34703"
         d="m 484.28571,267.14286 -51.42857,45.71428"
         style="fill:none;stroke:#000000;stroke-width:6;stroke-linecap:round;stroke-linejoin:round;stroke-miterlimit:4;stroke-dasharray:none;stroke-opacity:1" />
      <path
         inkscape:connector-curvature="0"
         id="path34711"
         d="m 20.086658,629.41838 -31.428572,72.85714"
         style="fill:none;stroke:#000000;stroke-width:6;stroke-linecap:round;stroke-linejoin:round;stroke-miterlimit:4;stroke-dasharray:none;stroke-opacity:1" />
      <path
         transform="translate(0,382.36218)"
         inkscape:connector-curvature="0"
         id="path34713"
         d="m 840,261.42857 24.28571,72.85714"
         style="fill:none;stroke:#000000;stroke-width:6;stroke-linecap:round;stroke-linejoin:round;stroke-miterlimit:4;stroke-dasharray:none;stroke-opacity:1" />
      <ellipse
         transform="translate(0,382.36218)"
         id="path34717"
         style="fill:#000000;fill-opacity:1;stroke:none"
         cx="-15.152288"
         cy="325.0329"
         rx="6.0609155"
         ry="6.5659914" />
      <ellipse
         transform="translate(0,382.36218)"
         id="path34725"
         style="fill:#000000;fill-opacity:1;stroke:none"
         cx="866.20581"
         cy="338.66995"
         rx="5.5558391"
         ry="6.0609155" />
      <g
         transform="translate(-2)"
         id="g34735">
        <circle
           style="fill:#000000;fill-opacity:1;stroke:none"
           id="path34733"
           transform="translate(0,382.36218)"
           cx="433.8605"
           cy="316.95169"
           r="7.5761442" />
      </g>
    </g>
  </g>
</svg>
